<svg width="12" height="12" viewBox="0 0 12 12" fill="none" xmlns="http://www.w3.org/2000/svg">
<path d="M4.89302 0.615226C5.40303 -0.205048 6.59687 -0.205048 7.10688 0.615226L8.20134 2.37552C8.38079 2.66413 8.66585 2.87124 8.99578 2.95272L11.0081 3.44966C11.9459 3.68122 12.3148 4.81663 11.6923 5.55516L10.3563 7.14002C10.1373 7.39986 10.0284 7.73498 10.0529 8.07394L10.2021 10.1414C10.2716 11.1048 9.30581 11.8065 8.41106 11.4426L6.49094 10.6618C6.17613 10.5338 5.82377 10.5338 5.50896 10.6618L3.58884 11.4426C2.69409 11.8065 1.72825 11.1048 1.79779 10.1414L1.94703 8.07394C1.97149 7.73498 1.86261 7.39986 1.64358 7.14002L0.307644 5.55516C-0.314881 4.81663 0.0540359 3.68122 0.991763 3.44966L3.00412 2.95272C3.33405 2.87124 3.61911 2.66413 3.79855 2.37552L4.89302 0.615226Z" fill="#F6C002"/>
</svg>
