<svg width="12" height="12" viewBox="0 0 12 12" fill="none" xmlns="http://www.w3.org/2000/svg">
<path d="M4.89309 0.61522C5.4031 -0.205046 6.59692 -0.205046 7.10693 0.61522L8.20138 2.3755C8.38082 2.6641 8.66588 2.87121 8.99581 2.95269L11.0081 3.44962C11.9459 3.68118 12.3148 4.81658 11.6923 5.5551L10.3563 7.13995C10.1373 7.39979 10.0284 7.7349 10.0529 8.07385L10.2021 10.1413C10.2717 11.1046 9.30584 11.8064 8.4111 11.4425L6.49099 10.6617C6.17619 10.5337 5.82383 10.5337 5.50903 10.6617L3.58893 11.4425C2.69419 11.8064 1.72836 11.1046 1.7979 10.1413L1.94713 8.07385C1.9716 7.7349 1.86271 7.39979 1.64368 7.13995L0.307764 5.5551C-0.314755 4.81658 0.0541586 3.68118 0.991876 3.44962L3.00421 2.95269C3.33414 2.87121 3.6192 2.6641 3.79864 2.3755L4.89309 0.61522Z" fill="#F6C002"/>
</svg>
