<svg width="15" height="15" viewBox="0 0 15 15" fill="none" xmlns="http://www.w3.org/2000/svg">
<path fill-rule="evenodd" clip-rule="evenodd" d="M5.62499 1.25C8.04124 1.25 9.99999 3.20875 9.99999 5.625C9.99999 8.04124 8.04124 9.99999 5.62499 9.99999C5.09985 9.99999 4.59764 9.90774 4.13279 9.7391C3.92789 9.66476 3.70004 9.64814 3.4778 9.70273C2.88086 9.84934 2.27148 9.94235 1.65691 9.98036C1.88801 9.37147 1.96786 8.71322 1.88662 8.06299C1.86854 7.91835 1.82124 7.79151 1.76504 7.68653C1.43654 7.07292 1.25 6.37167 1.25 5.625C1.25 3.20875 3.20875 1.25 5.62499 1.25ZM11.25 5.625C11.25 2.5184 8.73159 0 5.62499 0C2.5184 0 0 2.5184 0 5.625C0 6.57293 0.234986 7.46781 0.650384 8.25275C0.71522 8.83141 0.595076 9.41761 0.304582 9.92597L0.278947 9.97083C-0.0467503 10.5408 0.364802 11.25 1.02127 11.25C1.93868 11.25 2.85083 11.1407 3.7387 10.9257C4.32915 11.1359 4.96441 11.25 5.62499 11.25C8.73159 11.25 11.25 8.7316 11.25 5.625ZM12.722 5.16132C12.4582 5.38389 12.4247 5.7782 12.6473 6.04204C13.3357 6.85811 13.75 7.91111 13.75 9.0625C13.75 9.86411 13.5493 10.617 13.1959 11.2755C13.1392 11.381 13.0922 11.5077 13.074 11.6516C12.9847 12.3582 13.0761 13.0741 13.337 13.7326C12.658 13.6944 11.9847 13.5933 11.3257 13.4308C11.1033 13.376 10.8748 13.3925 10.6692 13.4676C10.1689 13.6501 9.62805 13.75 9.06249 13.75C7.91111 13.75 6.85811 13.3357 6.04204 12.6473C5.7782 12.4247 5.38389 12.4582 5.16132 12.722C4.93875 12.9858 4.97221 13.3802 5.23606 13.6027C6.26916 14.4742 7.60524 15 9.06249 15C9.76393 15 10.4382 14.8781 11.0645 14.6538C12.0085 14.8833 12.9784 15 13.9539 15C14.6214 15 15.0399 14.2789 14.7087 13.6993L14.7087 13.6993L14.6815 13.6517C14.3675 13.1022 14.2384 12.4682 14.31 11.8428C14.7506 11.0127 15 10.0658 15 9.0625C15 7.60524 14.4742 6.26917 13.6027 5.23606C13.3801 4.97222 12.9858 4.93876 12.722 5.16132ZM3.125 6.25C3.47017 6.25 3.75 5.97017 3.75 5.625C3.75 5.27982 3.47017 5 3.125 5C2.77982 5 2.5 5.27982 2.5 5.625C2.5 5.97017 2.77982 6.25 3.125 6.25ZM6.24999 5.625C6.24999 5.97017 5.97017 6.25 5.62499 6.25C5.27982 6.25 5 5.97017 5 5.625C5 5.27982 5.27982 5 5.62499 5C5.97017 5 6.24999 5.27982 6.24999 5.625ZM8.12499 6.25C8.47017 6.25 8.74999 5.97017 8.74999 5.625C8.74999 5.27982 8.47017 5 8.12499 5C7.77981 5 7.49999 5.27982 7.49999 5.625C7.49999 5.97017 7.77981 6.25 8.12499 6.25Z" fill="#A5E1D5"/>
</svg>
