<svg width="16" height="17" viewBox="0 0 16 17" fill="none" xmlns="http://www.w3.org/2000/svg">
<path d="M16 15.7623C16 15.9981 15.9063 16.2242 15.7396 16.3909C15.5729 16.5576 15.3468 16.6512 15.1111 16.6512H0.888886C0.653139 16.6512 0.427047 16.5576 0.260349 16.3909C0.0936504 16.2242 2.13964e-07 15.9981 2.13964e-07 15.7623V6.42015C-9.3763e-05 6.2847 0.0307707 6.15101 0.0902362 6.02931C0.149702 5.90761 0.236195 5.8011 0.34311 5.71793L7.4542 0.187283C7.61024 0.0659013 7.80229 0 7.99998 0C8.19767 0 8.38972 0.0659013 8.54575 0.187283L15.6568 5.71793C15.7638 5.8011 15.8503 5.90761 15.9097 6.02931C15.9692 6.15101 16 6.2847 16 6.42015V15.7623ZM14.2222 14.8735V6.85393L7.99998 2.01483L1.77777 6.85393V14.8735H14.2222ZM3.55555 11.3179H12.4444V13.0957H3.55555V11.3179Z" fill="white"/>
</svg>
