<svg width="296" height="243" viewBox="0 0 296 243" fill="none" xmlns="http://www.w3.org/2000/svg">
<mask id="path-1-inside-1_88_357" fill="white">
<path fill-rule="evenodd" clip-rule="evenodd" d="M30 0C13.4315 0 0 13.4315 0 30V213C0 229.569 13.4315 243 30 243H188.567C202.203 243 210.909 225.572 208.279 212.191C207.44 207.924 207 203.513 207 199C207 161.445 237.445 131 275 131C285.538 131 296 123.497 296 112.959V30C296 13.4315 282.569 0 266 0H30Z"/>
</mask>
<path fill-rule="evenodd" clip-rule="evenodd" d="M30 0C13.4315 0 0 13.4315 0 30V213C0 229.569 13.4315 243 30 243H188.567C202.203 243 210.909 225.572 208.279 212.191C207.44 207.924 207 203.513 207 199C207 161.445 237.445 131 275 131C285.538 131 296 123.497 296 112.959V30C296 13.4315 282.569 0 266 0H30Z" fill="#E9FBEA"/>
<path d="M5 30C5 16.1929 16.1929 5 30 5V-5C10.67 -5 -5 10.67 -5 30H5ZM5 213V30H-5V213H5ZM30 238C16.1929 238 5 226.807 5 213H-5C-5 232.33 10.67 248 30 248V238ZM188.567 238H30V248H188.567V238ZM213.185 211.227C212.408 207.275 212 203.188 212 199H202C202 203.839 202.471 208.572 203.372 213.156L213.185 211.227ZM212 199C212 164.206 240.206 136 275 136V126C234.683 126 202 158.683 202 199H212ZM291 30V112.959H301V30H291ZM266 5C279.807 5 291 16.1929 291 30H301C301 10.67 285.33 -5 266 -5V5ZM30 5H266V-5H30V5ZM275 136C287.276 136 301 127.182 301 112.959H291C291 119.813 283.801 126 275 126V136ZM188.567 248C197.733 248 204.718 242.133 208.831 235.151C212.944 228.169 214.758 219.23 213.185 211.227L203.372 213.156C204.43 218.533 203.206 224.998 200.215 230.075C197.224 235.153 193.037 238 188.567 238V248Z" fill="#A5E1D5" mask="url(#path-1-inside-1_88_357)"/>
</svg>
